<?xml version="1.0" standalone="no"?>
<!DOCTYPE svg PUBLIC "-//W3C//DTD SVG 20010904//EN"
 "http://www.w3.org/TR/2001/REC-SVG-20010904/DTD/svg10.dtd">
<svg version="1.0" xmlns="http://www.w3.org/2000/svg"
 width="96.000000pt" height="96.000000pt" viewBox="0 0 96.000000 96.000000"
 preserveAspectRatio="xMidYMid meet">
<metadata>
Created by potrace 1.14, written by Peter Selinger 2001-2017
</metadata>
<g transform="translate(0.000000,96.000000) scale(0.100000,-0.100000)"
fill="#000000" stroke="none">
<path d="M190 851 c-14 -27 -14 -715 0 -742 10 -18 24 -19 285 -19 235 0 276
2 289 16 14 13 16 61 16 370 0 226 -4 362 -10 375 -10 18 -24 19 -290 19 -266
0 -280 -1 -290 -19z m558 -28 c3 -10 -55 -13 -267 -13 -149 0 -271 4 -271 8 0
5 3 12 7 15 4 4 124 6 267 5 197 -2 260 -6 264 -15z m0 -300 l2 -253 -55 0
c-86 0 -95 -8 -95 -86 l0 -64 -192 2 -193 3 -3 315 c-1 173 0 321 3 328 3 10
61 12 267 10 l263 -3 3 -252z m2 -343 l0 -60 -60 0 -60 0 0 53 c0 30 3 57 7
60 3 4 30 7 60 7 l53 0 0 -60z"/>
<path d="M396 658 l-47 -51 -23 22 c-23 22 -46 28 -46 12 0 -18 47 -61 65 -61
19 0 115 92 115 109 0 26 -21 16 -64 -31z"/>
<path d="M510 675 c0 -12 17 -15 90 -15 73 0 90 3 90 15 0 12 -17 15 -90 15
-73 0 -90 -3 -90 -15z"/>
<path d="M510 615 c0 -12 17 -15 90 -15 73 0 90 3 90 15 0 12 -17 15 -90 15
-73 0 -90 -3 -90 -15z"/>
<path d="M410 431 c-61 -64 -69 -67 -86 -43 -15 22 -44 30 -44 13 0 -17 47
-61 64 -61 9 0 42 24 72 53 44 42 53 56 42 64 -10 9 -21 2 -48 -26z"/>
<path d="M510 435 c0 -12 17 -15 90 -15 73 0 90 3 90 15 0 12 -17 15 -90 15
-73 0 -90 -3 -90 -15z"/>
<path d="M510 375 c0 -12 17 -15 90 -15 73 0 90 3 90 15 0 12 -17 15 -90 15
-73 0 -90 -3 -90 -15z"/>
<path d="M660 180 c0 -27 3 -30 30 -30 27 0 30 3 30 30 0 27 -3 30 -30 30 -27
0 -30 -3 -30 -30z"/>
</g>
</svg>
